<svg aria-hidden="true" style="position: absolute; width: 0; height: 0; overflow: hidden;" version="1.1"
    xmlns="http://www.w3.org/2000/svg"
    xmlns:xlink="http://www.w3.org/1999/xlink">
    <defs>
        <symbol id="icon-arrow" viewBox="0 0 34 32">
            <path fill="#335b6b" style="fill: var(--color1, #335b6b)" d="M32.842 16c0 8.837-7.163 16-16 16s-16-7.163-16-16c0-8.837 7.163-16 16-16s16 7.163 16 16z"></path>
            <path fill="none" stroke="#fff" style="stroke: var(--color2, #fff)" stroke-linejoin="round" stroke-linecap="round" stroke-miterlimit="4" stroke-width="1.6842" d="M16.802 10.322l5.717 5.161-5.717 5.161M21.725 15.484h-11.593"></path>
        </symbol>
        <symbol id="icon-circle" viewBox="0 0 32 32">
            <path fill="#7eb693" style="fill: var(--color1, #7eb693)" d="M32 16c0 8.837-7.163 16-16 16s-16-7.163-16-16c0-8.837 7.163-16 16-16s16 7.163 16 16z"></path>
            <path fill="#ececec" style="fill: var(--color2, #ececec)" d="M25.263 16c0 5.116-4.147 9.263-9.263 9.263s-9.263-4.147-9.263-9.263c0-5.116 4.147-9.263 9.263-9.263s9.263 4.147 9.263 9.263z"></path>
        </symbol>
        <symbol id="icon-burger" viewBox="0 0 32 32">
            <path d="M3.2 7.467c-0.005-0-0.010-0-0.015-0-0.589 0-1.067 0.478-1.067 1.067s0.478 1.067 1.067 1.067c0.005 0 0.011-0 0.016-0h25.599c0.005 0 0.010 0 0.015 0 0.589 0 1.067-0.478 1.067-1.067s-0.478-1.067-1.067-1.067c-0.005 0-0.011 0-0.016 0h-25.599zM3.2 14.933c-0.005-0-0.010-0-0.015-0-0.589 0-1.067 0.478-1.067 1.067s0.478 1.067 1.067 1.067c0.005 0 0.011-0 0.016-0h25.599c0.005 0 0.010 0 0.015 0 0.589 0 1.067-0.478 1.067-1.067s-0.478-1.067-1.067-1.067c-0.005 0-0.011 0-0.016 0h-25.599zM3.2 22.4c-0.005-0-0.010-0-0.015-0-0.589 0-1.067 0.478-1.067 1.067s0.478 1.067 1.067 1.067c0.005 0 0.011-0 0.016-0h25.599c0.005 0 0.010 0 0.015 0 0.589 0 1.067-0.478 1.067-1.067s-0.478-1.067-1.067-1.067c-0.005 0-0.011 0-0.016 0h-25.599z"></path>
        </symbol>
        <symbol id="icon-cross" viewBox="0 0 32 32">
            <path d="M20.783 15.999l10.226-10.226c1.321-1.321 1.321-3.462 0-4.783s-3.462-1.321-4.783 0l-10.226 10.227-10.226-10.226c-1.321-1.321-3.462-1.321-4.783 0s-1.321 3.462 0 4.783l10.226 10.226-10.226 10.226c-1.321 1.321-1.321 3.462 0 4.783s3.462 1.321 4.783 0l10.226-10.225 10.226 10.225c1.321 1.321 3.462 1.321 4.783 0s1.321-3.462 0-4.783l-10.226-10.227z"></path>
        </symbol>
        <symbol id="icon-arrow_bottom" viewBox="0 0 43 32">
            <path fill="none" stroke="#274c5b" style="stroke: var(--color3, #274c5b)" stroke-linejoin="round" stroke-linecap="round" stroke-miterlimit="4" stroke-width="8" d="M4.219 8l16 16 16-16"></path>
        </symbol>
        <symbol id="icon-arrow1" viewBox="0 0 36 32">
            <path fill="none" stroke="#fff" style="stroke: var(--color2, #fff)" stroke-linejoin="round" stroke-linecap="round" stroke-miterlimit="4" stroke-width="4" d="M17.906 4.516l13.578 12.258-13.578 12.258M29.598 16.774h-27.534"></path>
        </symbol>
        <symbol id="icon-arrow_right" viewBox="0 0 20 32">
            <path fill="none" stroke="#fff" style="stroke: var(--color2, #fff)" stroke-linejoin="round" stroke-linecap="round" stroke-miterlimit="4" stroke-width="3.6923" d="M2.462 29.538l13.538-13.538-13.538-13.538"></path>
        </symbol>
        <symbol id="icon-cart" viewBox="0 0 36 32">
            <path fill="#fff" style="fill: var(--color2, #fff); stroke: var(--color2, #fff)" stroke="#fff" stroke-linejoin="round" stroke-linecap="round" stroke-miterlimit="4" stroke-width="2" d="M15.425 30.667c0.9 0 1.63-0.73 1.63-1.63s-0.73-1.63-1.63-1.63c-0.9 0-1.63 0.73-1.63 1.63s0.73 1.63 1.63 1.63z"></path>
            <path fill="#fff" style="fill: var(--color2, #fff); stroke: var(--color2, #fff)" stroke="#fff" stroke-linejoin="round" stroke-linecap="round" stroke-miterlimit="4" stroke-width="2" d="M26.833 30.667c0.9 0 1.63-0.73 1.63-1.63s-0.73-1.63-1.63-1.63c-0.9 0-1.63 0.73-1.63 1.63s0.73 1.63 1.63 1.63z"></path>
            <path fill="none" stroke="#fff" style="stroke: var(--color2, #fff)" stroke-linejoin="round" stroke-linecap="round" stroke-miterlimit="4" stroke-width="2.6667" d="M2.388 1.333h5.043l3.782 21.431h20.17"></path>
            <path fill="none" stroke="#fff" style="stroke: var(--color2, #fff)" stroke-linejoin="round" stroke-linecap="round" stroke-miterlimit="4" stroke-width="2.6667" d="M10.536 17.578l20.33 0.143c0.146 0 0.287-0.050 0.4-0.143s0.19-0.221 0.219-0.364l2.269-11.346c0.018-0.091 0.016-0.186-0.007-0.276s-0.065-0.175-0.124-0.247-0.134-0.13-0.218-0.17c-0.084-0.040-0.177-0.061-0.27-0.060h-24.657"></path>
        </symbol>
        <symbol id="icon-fb" viewBox="0 0 32 32">
            <path fill="#274c5b" style="fill: var(--color3, #274c5b)" d="M30.852 16c0-8.203-6.907-14.855-15.426-14.855s-15.426 6.652-15.426 14.855c0 7.414 5.64 13.56 13.016 14.675v-10.38h-3.918v-4.295h3.918v-3.273c0-3.722 2.304-5.78 5.827-5.78 1.688 0 3.454 0.29 3.454 0.29v3.656h-1.946c-1.915 0-2.514 1.145-2.514 2.321v2.785h4.278l-0.683 4.295h-3.594v10.381c7.376-1.115 13.016-7.26 13.016-14.677z"></path>
        </symbol>
        <symbol id="icon-inst" viewBox="0 0 32 32">
            <path fill="#274c5b" style="fill: var(--color3, #274c5b)" d="M21.854 3.621c1.703 0.005 3.335 0.659 4.54 1.818s1.883 2.731 1.888 4.372v12.379c-0.005 1.64-0.684 3.212-1.888 4.372s-2.836 1.814-4.54 1.818h-12.855c-1.703-0.005-3.335-0.659-4.54-1.818s-1.883-2.731-1.888-4.372v-12.379c0.005-1.64 0.684-3.212 1.888-4.372s2.836-1.814 4.54-1.818h12.855zM21.854 1.145h-12.855c-4.949 0-8.999 3.899-8.999 8.666v12.379c0 4.766 4.049 8.666 8.999 8.666h12.855c4.95 0 8.999-3.9 8.999-8.666v-12.379c0-4.766-4.049-8.666-8.999-8.666z"></path>
            <path fill="#274c5b" style="fill: var(--color3, #274c5b)" d="M23.781 9.812c-0.381 0-0.754-0.109-1.071-0.313s-0.564-0.494-0.71-0.833-0.184-0.713-0.11-1.073c0.074-0.36 0.258-0.691 0.528-0.951s0.613-0.437 0.987-0.508 0.762-0.035 1.114 0.106c0.352 0.141 0.653 0.379 0.865 0.684s0.325 0.664 0.325 1.032c0 0.244-0.049 0.486-0.146 0.711s-0.239 0.43-0.418 0.603c-0.179 0.173-0.392 0.309-0.626 0.402s-0.485 0.141-0.739 0.14zM15.426 11.050c1.017 0 2.011 0.29 2.857 0.835s1.505 1.317 1.894 2.222c0.389 0.905 0.491 1.901 0.293 2.861s-0.688 1.843-1.407 2.536c-0.719 0.692-1.635 1.164-2.633 1.355s-2.031 0.093-2.971-0.282c-0.94-0.375-1.743-1.010-2.308-1.824s-0.867-1.772-0.867-2.751c0.001-1.313 0.544-2.572 1.508-3.5s2.271-1.45 3.635-1.452zM15.426 8.574c-1.526 0-3.017 0.436-4.285 1.252s-2.257 1.976-2.841 3.333c-0.584 1.357-0.737 2.851-0.439 4.291s1.032 2.764 2.111 3.803c1.079 1.039 2.453 1.746 3.949 2.033s3.047 0.14 4.456-0.423c1.409-0.562 2.614-1.514 3.462-2.736s1.3-2.657 1.3-4.127c0-1.97-0.813-3.859-2.259-5.252s-3.408-2.175-5.454-2.175z"></path>
        </symbol>
        <symbol id="icon-logo" viewBox="0 0 22 32">
            <path fill="none" stroke="#7eb693" style="stroke: var(--color4, #7eb693)" stroke-linejoin="miter" stroke-linecap="butt" stroke-miterlimit="10" stroke-width="1.1429" d="M1.057 24.039h19.932"></path>
            <path fill="none" stroke="#7eb693" style="stroke: var(--color4, #7eb693)" stroke-linejoin="miter" stroke-linecap="butt" stroke-miterlimit="10" stroke-width="1.1429" d="M3.309 27.714h15.429"></path>
            <path fill="none" stroke="#7eb693" style="stroke: var(--color4, #7eb693)" stroke-linejoin="miter" stroke-linecap="butt" stroke-miterlimit="10" stroke-width="1.1429" d="M10.738 0.857v8"></path>
            <path fill="none" stroke="#7eb693" style="stroke: var(--color4, #7eb693)" stroke-linejoin="miter" stroke-linecap="butt" stroke-miterlimit="10" stroke-width="1.1429" d="M10.78 8.448v15.104"></path>
            <path fill="none" stroke="#7eb693" style="stroke: var(--color4, #7eb693)" stroke-linejoin="miter" stroke-linecap="butt" stroke-miterlimit="10" stroke-width="1.1429" d="M17.1 2.602l-6.32 6.334"></path>
            <path fill="none" stroke="#7eb693" style="stroke: var(--color4, #7eb693)" stroke-linejoin="miter" stroke-linecap="butt" stroke-miterlimit="10" stroke-width="1.1429" d="M19.531 5.038l-8.751 8.77"></path>
            <path fill="none" stroke="#7eb693" style="stroke: var(--color4, #7eb693)" stroke-linejoin="miter" stroke-linecap="butt" stroke-miterlimit="10" stroke-width="1.1429" d="M20.989 8.935l-10.209 9.744"></path>
            <path fill="none" stroke="#7eb693" style="stroke: var(--color4, #7eb693)" stroke-linejoin="miter" stroke-linecap="butt" stroke-miterlimit="10" stroke-width="1.1429" d="M21.476 13.32l-10.695 10.719"></path>
            <path fill="none" stroke="#7eb693" style="stroke: var(--color4, #7eb693)" stroke-linejoin="miter" stroke-linecap="butt" stroke-miterlimit="10" stroke-width="1.1429" d="M21.475 18.192l-5.834 5.847"></path>
            <path fill="none" stroke="#7eb693" style="stroke: var(--color4, #7eb693)" stroke-linejoin="miter" stroke-linecap="butt" stroke-miterlimit="10" stroke-width="1.1429" d="M0.571 18.192l5.834 5.847"></path>
            <path fill="none" stroke="#7eb693" style="stroke: var(--color4, #7eb693)" stroke-linejoin="miter" stroke-linecap="butt" stroke-miterlimit="10" stroke-width="1.1429" d="M4.947 2.602l5.834 6.334"></path>
            <path fill="none" stroke="#7eb693" style="stroke: var(--color4, #7eb693)" stroke-linejoin="miter" stroke-linecap="butt" stroke-miterlimit="10" stroke-width="1.1429" d="M2.516 5.038l8.264 8.77"></path>
            <path fill="none" stroke="#7eb693" style="stroke: var(--color4, #7eb693)" stroke-linejoin="miter" stroke-linecap="butt" stroke-miterlimit="10" stroke-width="1.1429" d="M1.057 8.448l9.723 10.232"></path>
            <path fill="none" stroke="#7eb693" style="stroke: var(--color4, #7eb693)" stroke-linejoin="miter" stroke-linecap="butt" stroke-miterlimit="10" stroke-width="1.1429" d="M0.571 12.833l10.209 10.719"></path>
            <path fill="none" stroke="#7eb693" style="stroke: var(--color4, #7eb693)" stroke-linejoin="miter" stroke-linecap="butt" stroke-miterlimit="10" stroke-width="1.1429" d="M11.023 31.347c-5.772 0-10.452-4.83-10.452-10.789v-9.117c0-5.958 4.68-10.789 10.452-10.789 5.773 0 10.452 4.831 10.452 10.789v9.117c0.001 5.959-4.679 10.789-10.452 10.789z"></path>
        </symbol>
        <symbol id="icon-person" viewBox="0 0 30 32">
            <path d="M20.506 2.327c-1.347-1.501-3.229-2.327-5.306-2.327-2.088 0-3.976 0.821-5.317 2.313-1.355 1.508-2.016 3.557-1.861 5.77 0.307 4.366 3.527 7.917 7.178 7.917s6.865-3.551 7.177-7.916c0.157-2.193-0.508-4.238-1.871-5.757zM27.384 32h-24.369c-0.319 0.004-0.635-0.065-0.925-0.202s-0.546-0.34-0.751-0.593c-0.45-0.555-0.631-1.313-0.497-2.079 0.584-3.344 2.408-6.154 5.274-8.126 2.546-1.751 5.772-2.714 9.083-2.714s6.537 0.964 9.083 2.714c2.866 1.972 4.689 4.781 5.274 8.125 0.134 0.766-0.047 1.524-0.497 2.079-0.204 0.253-0.461 0.455-0.751 0.593s-0.606 0.207-0.925 0.203z"></path>
        </symbol>
        <symbol id="icon-pin" viewBox="0 0 30 32">
            <path fill="#274c5b" style="fill: var(--color3, #274c5b)" d="M14.928 1.091c-8.244 0-14.928 6.681-14.928 14.922 0 6.108 3.679 11.358 8.937 13.669-0.040-1.039-0.007-2.291 0.26-3.424 0.287-1.212 1.919-8.133 1.919-8.133s-0.48-0.953-0.48-2.358c0-2.212 1.28-3.864 2.879-3.864 1.36 0 2.013 1.019 2.013 2.238 0 1.366-0.873 3.404-1.32 5.296-0.373 1.585 0.793 2.871 2.359 2.871 2.826 0 4.732-3.63 4.732-7.934 0-3.271-2.206-5.715-6.211-5.715-4.525 0-7.351 3.377-7.351 7.148 0 1.299 0.387 2.218 0.986 2.924 0.273 0.326 0.313 0.46 0.213 0.833-0.073 0.273-0.233 0.933-0.307 1.199-0.1 0.38-0.407 0.513-0.746 0.373-2.086-0.853-3.059-3.131-3.059-5.702 0-4.237 3.579-9.319 10.67-9.319 5.698 0 9.45 4.123 9.45 8.547 0 5.855-3.259 10.225-8.057 10.225-1.613 0-3.126-0.873-3.645-1.859 0 0-0.866 3.437-1.053 4.103-0.313 1.152-0.933 2.298-1.499 3.197 1.374 0.405 2.799 0.612 4.232 0.613 8.244 0 14.928-6.681 14.928-14.921s-6.678-14.928-14.922-14.928z"></path>
        </symbol>
        <symbol id="icon-search" viewBox="0 0 34 32">
            <path fill="#fafafa" style="fill: var(--color5, #fafafa)" d="M32.715 28.788l-7.254-7.254c1.746-2.325 2.689-5.155 2.686-8.063 0-7.428-6.043-13.471-13.471-13.471s-13.471 6.043-13.471 13.471c0 7.428 6.043 13.471 13.471 13.471 2.908 0.003 5.738-0.94 8.063-2.686l7.254 7.254c0.367 0.328 0.846 0.503 1.338 0.49s0.961-0.215 1.309-0.564c0.348-0.348 0.55-0.817 0.564-1.309s-0.161-0.971-0.49-1.338zM5.054 13.471c0-1.903 0.564-3.763 1.622-5.346s2.56-2.816 4.318-3.544c1.758-0.728 3.693-0.919 5.559-0.548s3.581 1.288 4.926 2.633 2.262 3.060 2.633 4.927c0.371 1.866 0.181 3.801-0.547 5.559s-1.961 3.261-3.544 4.318c-1.582 1.057-3.443 1.622-5.346 1.622-2.551-0.003-4.997-1.018-6.8-2.822s-2.819-4.249-2.822-6.8z"></path>
        </symbol>
        <symbol id="icon-twit" viewBox="0 0 37 32">
            <path fill="#274c5b" style="fill: var(--color3, #274c5b)" d="M36.729 4.754c-1.378 0.599-2.836 0.993-4.327 1.171 1.568-0.918 2.747-2.376 3.316-4.101-1.482 0.867-3.101 1.475-4.787 1.798-0.71-0.744-1.564-1.336-2.51-1.74s-1.964-0.611-2.993-0.609c-4.164 0-7.534 3.321-7.534 7.415-0.003 0.569 0.062 1.137 0.194 1.691-2.986-0.14-5.91-0.902-8.585-2.236s-5.041-3.213-6.949-5.515c-0.669 1.128-1.023 2.415-1.025 3.726 0 2.571 1.341 4.844 3.367 6.175-1.2-0.028-2.375-0.346-3.427-0.926v0.092c0 3.596 2.602 6.588 6.045 7.269-0.648 0.173-1.315 0.26-1.985 0.26-0.476 0.001-0.95-0.045-1.416-0.138 0.957 2.946 3.743 5.089 7.044 5.15-2.682 2.067-5.974 3.184-9.36 3.176-0.601-0.001-1.201-0.037-1.798-0.107 3.444 2.199 7.448 3.363 11.534 3.352 13.878 0 21.459-11.302 21.459-21.104 0-0.321-0.009-0.643-0.024-0.956 1.472-1.047 2.745-2.348 3.759-3.841z"></path>
        </symbol>
        <symbol id="icon-garlic" viewBox="0 0 31 32">
            <path d="M26.315 18.805c-1.34-0.461-3.001-1.283-3.016-2.926-0.009-1.115 0.631-2.143 0.939-3.19 0.591-2.013-0.172-4.217-1.458-5.789-1.32-1.616-3.254-2.756-5.317-3.099-1.013-0.17-2.061-0.141-3.055 0.124-0.998 0.265-1.952 0.759-2.834 1.289-1.963 1.184-3.706 2.77-5.113 4.578-1.381 1.777-2.499 3.84-2.915 6.072-0.19 1.030-0.234 2.108-0.049 3.145 0.223 1.246 0.836 2.394 1.639 3.36 1.645 1.976 4.101 3.296 6.588 3.865 2.481 0.563 5.031-0.081 6.83-1.91 0.94-0.955 1.567-2.129 2.175-3.308 0.309-0.597 0.676-1.234 1.353-1.454 0.667-0.218 1.354-0.005 1.972 0.261 0.532 0.232 1.036 0.522 1.568 0.75 0.094 0.042 0.185 0.012 0.243-0.075 0.257-0.399 0.563-0.759 0.723-1.213 0.074-0.217-0.274-0.297-0.349-0.080-0.145 0.418-0.454 0.759-0.689 1.127 0.082-0.025 0.16-0.050 0.242-0.075-0.991-0.424-1.971-1.144-3.092-1.14-1.394 0.006-1.969 1.115-2.528 2.212-0.597 1.167-1.313 2.288-2.312 3.156-0.954 0.828-2.135 1.372-3.387 1.535-2.564 0.337-5.309-0.764-7.344-2.274-1.040-0.772-1.961-1.727-2.585-2.867-0.584-1.066-0.831-2.236-0.806-3.45 0.044-2.228 0.942-4.372 2.141-6.218 1.257-1.933 2.908-3.633 4.781-4.972 1.677-1.197 3.616-2.243 5.728-2.186 2.105 0.056 4.156 1.040 5.623 2.531 1.424 1.45 2.419 3.633 1.955 5.694-0.236 1.054-0.824 2.006-0.993 3.080-0.182 1.172 0.375 2.225 1.333 2.892 0.584 0.407 1.248 0.673 1.917 0.9 0.229 0.078 0.307-0.273 0.090-0.347z"></path>
            <path d="M25.080 18.929c-0.76-0.344-1.552-0.625-2.279-1.037-0.354-0.199-0.69-0.436-0.978-0.726-0.322-0.33-0.537-0.736-0.754-1.14-0.678-1.28-1.038-2.706-1.799-3.942-1.422-2.305-4.088-3.736-6.75-3.985-1.486-0.139-2.988 0.103-4.328 0.774-0.207 0.104-0.018 0.407 0.188 0.306 2.421-1.209 5.366-0.898 7.686 0.393 1.234 0.687 2.303 1.663 3.013 2.892 0.708 1.222 1.061 2.61 1.738 3.849 0.417 0.764 0.904 1.348 1.655 1.805 0.767 0.465 1.625 0.76 2.44 1.129 0.209 0.095 0.38-0.221 0.168-0.317z"></path>
            <path d="M21.026 17.895c-4.117-0.638-8.507-0.704-12.292-2.636-1.098-0.56-2.098-1.279-2.956-2.163-0.159-0.165-0.404 0.096-0.245 0.261 3.099 3.184 7.676 3.901 11.888 4.424 1.177 0.147 2.355 0.279 3.526 0.46 0.224 0.037 0.304-0.311 0.078-0.347z"></path>
            <path d="M18.975 15.683c-2.559-3.183-6.713-4.834-10.707-5.148-0.229-0.019-0.216 0.339 0.011 0.356 3.851 0.302 7.921 1.905 10.389 4.976 0.141 0.18 0.447-0.004 0.306-0.184z"></path>
            <path d="M15.465 14.9c-1.659-0.23-3.21-0.952-4.602-1.859-0.192-0.126-0.36 0.192-0.168 0.317 1.415 0.92 3.003 1.657 4.69 1.891 0.226 0.031 0.31-0.318 0.080-0.349z"></path>
            <path d="M19.697 19.352c-1.777 0.526-3.605 0.957-5.469 0.907-1.995-0.056-3.834-0.73-5.595-1.629-1.228-0.627-2.478-1.376-3.21-2.582-0.12-0.199-0.425-0.011-0.306 0.188 0.636 1.044 1.644 1.771 2.693 2.363 0.977 0.548 2.002 1.043 3.064 1.404 1.796 0.615 3.683 0.749 5.559 0.477 1.142-0.168 2.261-0.453 3.366-0.781 0.221-0.068 0.119-0.411-0.102-0.347z"></path>
            <path d="M19.12 20.769c-1.287 1.438-2.977 2.461-4.883 2.807-2.168 0.391-4.367-0.108-6.133-1.424-1.065-0.796-1.973-1.781-2.938-2.692-0.167-0.157-0.414 0.102-0.245 0.261 1.796 1.694 3.494 3.621 6.022 4.15 1.942 0.406 3.974 0.155 5.743-0.748 1.024-0.522 1.93-1.254 2.697-2.108 0.152-0.175-0.108-0.42-0.263-0.247z"></path>
            <path d="M13.478 21.84c-1.268 0.034-2.544-0.241-3.551-1.049-0.179-0.144-0.423 0.117-0.245 0.261 1.082 0.87 2.438 1.185 3.805 1.146 0.233-0.005 0.221-0.365-0.009-0.358z"></path>
            <path d="M16.69 18.837c-1.545-0.021-3.066-0.303-4.565-0.658-0.224-0.054-0.305 0.295-0.080 0.349 1.527 0.362 3.081 0.647 4.654 0.667 0.233 0.003 0.222-0.353-0.009-0.358z"></path>
            <path d="M8.828 17.018c-0.793-0.363-1.575-0.721-2.163-1.386-0.153-0.171-0.398 0.090-0.245 0.261 0.609 0.689 1.424 1.066 2.243 1.442 0.205 0.095 0.376-0.221 0.164-0.317z"></path>
            <path d="M8.362 12.918c-0.742-0.312-1.447-0.699-2.191-1.009-0.211-0.088-0.379 0.229-0.168 0.317 0.742 0.312 1.447 0.699 2.191 1.009 0.213 0.086 0.382-0.227 0.168-0.317z"></path>
            <path d="M22.459 14.4c-0.409-1.687-0.7-3.471-1.786-4.884-1.144-1.486-2.843-2.563-4.657-3.009-1.055-0.26-2.149-0.318-3.229-0.229-0.23 0.019-0.219 0.375 0.011 0.356 2.441-0.201 4.738 0.452 6.6 2.063 0.845 0.73 1.486 1.619 1.881 2.665 0.382 1.014 0.579 2.091 0.837 3.141 0.056 0.225 0.396 0.121 0.343-0.102z"></path>
            <path d="M22.563 9.63c-0.465-0.829-0.929-1.673-1.558-2.393-0.642-0.737-1.452-1.257-2.386-1.545-0.219-0.068-0.299 0.281-0.080 0.349 0.905 0.281 1.669 0.805 2.28 1.528 0.578 0.68 1.004 1.476 1.439 2.249 0.113 0.201 0.417 0.015 0.306-0.188z"></path>
        </symbol>
        <symbol id="icon-leaf" viewBox="0 0 23 32">
            <path d="M27.49-5.26c1.877 2.829 3.334 5.961 4.783 9.027 0.63 1.333 1.215 2.697 1.672 4.102 0.424 1.308 0.784 2.707 0.724 4.090-0.028 0.659-0.121 1.65-0.84 1.936-0.538 0.213-1.199-0.003-1.725-0.155-0.928-0.272-2.456-0.953-3.099 0.167-0.349 0.609-0.274 1.354-0.141 2.016 0.183 0.894 0.49 1.758 0.727 2.634 0.228 0.851 0.468 1.817 0.231 2.692-0.242 0.887-1.113 1.486-2.023 1.493-1.047 0.006-1.999-0.71-2.806-1.298-0.761-0.557-1.533-1.216-2.446-1.499-0.933-0.287-1.75 0.118-2.431 0.75-0.901 0.832-1.56 1.895-2.298 2.866-0.742 0.978-1.528 1.79-2.649 2.327-0.863 0.413-2.306 0.918-3.063 0.050-0.819-0.942-0.417-2.567-0.11-3.634 0.393-1.368 0.964-2.682 1.493-3.998 0.21-0.525 0.415-1.051 0.593-1.585 0.048-0.147-0.106-0.278-0.24-0.273-0.945 0.040-1.913-0.1-2.829-0.328-0.896-0.223-2.008-0.572-2.593-1.343-0.689-0.905 0.062-1.982 0.803-2.579 0.966-0.782 2.154-1.258 3.249-1.827 1.113-0.576 2.366-1.29 2.832-2.529 0.045-0.118 0.014-0.244-0.108-0.308-1.247-0.669-2.627-1.161-3.742-2.051-0.423-0.336-0.919-0.813-0.879-1.401 0.057-0.833 1.041-1.443 1.685-1.794 1.107-0.603 2.341-0.893 3.548-1.214 0.85-0.228 2.173-0.343 2.442-1.389 0.061-0.24-0.032-0.359-0.175-0.533-0.246-0.308-0.144-0.717-0.137-1.097 0.001-0.204-0.044-0.528 0.072-0.711 0.126-0.208 0.499-0.285 0.711-0.356 1.331-0.461 2.713-0.739 4.073-1.109 0.753-0.207 1.532-0.339 2.292-0.529 0.811-0.201 1.617-0.422 2.423-0.643 0.283-0.079 0.139-0.513-0.146-0.437-1.448 0.398-2.901 0.768-4.368 1.090-0.698 0.152-1.386 0.365-2.078 0.532s-1.386 0.338-2.062 0.569c-0.494 0.167-1.194 0.308-1.335 0.897-0.070 0.299-0.038 0.631-0.045 0.936-0.006 0.375-0.075 0.753 0.167 1.069 0.044 0.059 0.164 0.133 0.166 0.203 0.014 0.278-0.491 0.62-0.694 0.693-0.58 0.215-1.23 0.327-1.831 0.486-1.285 0.337-2.585 0.698-3.717 1.424-0.61 0.39-1.295 0.976-1.434 1.727-0.105 0.57 0.165 1.092 0.541 1.503 1.129 1.234 2.876 1.786 4.316 2.552-0.038-0.103-0.071-0.205-0.108-0.308-0.479 1.279-1.875 1.947-3.019 2.521-1.168 0.591-2.479 1.122-3.392 2.095-0.642 0.685-1.078 1.697-0.568 2.58 0.496 0.862 1.557 1.293 2.46 1.573 1.112 0.349 2.328 0.543 3.496 0.492-0.080-0.093-0.157-0.182-0.24-0.273-0.437 1.322-1.027 2.587-1.516 3.89-0.448 1.201-0.923 2.491-0.927 3.788-0.002 1.062 0.368 2.216 1.51 2.491 1.059 0.256 2.224-0.227 3.131-0.741 1.091-0.614 1.85-1.541 2.585-2.536 0.728-0.986 1.428-2.152 2.455-2.856 0.944-0.649 1.858-0.247 2.722 0.333 0.899 0.605 1.724 1.344 2.708 1.818 0.906 0.437 1.891 0.53 2.791 0.026 0.762-0.426 1.188-1.17 1.258-2.030 0.154-1.911-0.938-3.638-1.127-5.5-0.056-0.533-0.010-1.35 0.616-1.53 0.553-0.157 1.229 0.12 1.75 0.28 1.138 0.348 2.66 0.781 3.254-0.623 0.435-1.028 0.316-2.289 0.129-3.356-0.258-1.476-0.745-2.905-1.31-4.286-0.548-1.349-1.182-2.661-1.84-3.963-0.83-1.651-1.608-3.331-2.503-4.948-0.454-0.819-0.936-1.619-1.457-2.398-0.14-0.256-0.522-0.001-0.356 0.247z"></path>
            <path d="M27.249-5.74c-0.901 4.032-2.845 7.757-4.619 11.453-0.929 1.934-1.83 3.884-2.791 5.803-1.014 2.025-2.047 4.042-3.027 6.084-0.536 1.114-1.056 2.239-1.547 3.376-0.245 0.566-0.482 1.135-0.71 1.707-0.236 0.591-0.394 1.201-0.626 1.793-0.105 0.273 0.305 0.477 0.413 0.201 0.187-0.487 0.311-0.995 0.5-1.479 0.204-0.521 0.415-1.038 0.634-1.555 0.439-1.036 0.902-2.061 1.381-3.075 0.978-2.072 2.019-4.116 3.045-6.163 0.999-1.994 1.95-4.008 2.911-6.020 0.898-1.882 1.825-3.752 2.668-5.663 0.904-2.058 1.723-4.17 2.212-6.371 0.071-0.29-0.381-0.378-0.445-0.091z"></path>
            <path d="M18.778 20.587c-0.107-0.848-0.192-1.701-0.255-2.556-0.073-0.968-0.139-1.953-0.061-2.92 0.018-0.224-0.231-0.372-0.399-0.193-1.113 1.177-2.401 2.17-3.493 3.364-0.199 0.217 0.149 0.519 0.348 0.302 1.092-1.194 2.381-2.188 3.493-3.364-0.133-0.066-0.268-0.13-0.399-0.193-0.082 0.987-0.026 1.984 0.049 2.968 0.064 0.876 0.15 1.751 0.261 2.623 0.035 0.29 0.493 0.262 0.456-0.031z"></path>
            <path d="M24.373 18.77c-1.982-2.794-2.576-6.114-3.099-9.428-0.020-0.128-0.155-0.272-0.301-0.206-2.211 1.040-4.467 1.973-6.685 2.996-0.268 0.122-0.124 0.561 0.146 0.437 2.218-1.023 4.474-1.956 6.685-2.996-0.1-0.070-0.201-0.135-0.301-0.206 0.538 3.388 1.146 6.796 3.176 9.655 0.166 0.242 0.55-0.010 0.379-0.253z"></path>
            <path d="M27.454 12.145c-1.808-2.513-2.612-5.613-3.381-8.568-0.037-0.148-0.229-0.196-0.344-0.119-2.012 1.318-4.436 1.815-6.446 3.128-0.246 0.16 0.006 0.544 0.255 0.382 2.009-1.316 4.435-1.81 6.447-3.128-0.114-0.039-0.23-0.080-0.345-0.119 0.783 2.995 1.603 6.132 3.433 8.679 0.172 0.238 0.554-0.017 0.382-0.255z"></path>
            <path d="M29.614 6.799c-0.979-2.793-2.319-5.433-3.407-8.184-0.042-0.109-0.172-0.199-0.292-0.145-2.085 0.912-4.457 0.805-6.504 1.833-0.265 0.133-0.006 0.512 0.255 0.382 2.003-1.007 4.348-0.882 6.393-1.78-0.099-0.049-0.193-0.097-0.292-0.145 1.089 2.746 2.428 5.391 3.407 8.184 0.098 0.279 0.535 0.133 0.439-0.143z"></path>
        </symbol>
        <symbol id="icon-many_leaf" viewBox="0 0 27 32">
            <path d="M-16.596 39.765c4.338-0.993 8.546-2.757 11.552-6.166 3.759-4.263 5.301-9.871 7.733-14.89 0.685-1.417 1.471-2.765 2.333-4.082 0.58-0.888 1.32-2.071 2.372-2.434-0.087-0.061-0.175-0.121-0.258-0.184-0.023 0.512-0.38 0.925-0.705 1.293-0.319 0.361-0.642 0.708-0.931 1.096-0.705 0.953-1.3 1.999-1.826 3.062-0.748 1.51-1.426 3.11-1.881 4.735-0.232 0.828-0.425 1.706-0.323 2.566 0.012 0.102 0.118 0.164 0.215 0.149 1.105-0.152 2.191-0.446 3.272-0.72 1.293-0.328 2.58-0.674 3.881-0.973 0.536-0.123 1.072-0.24 1.615-0.325 0.347-0.054 0.736-0.131 1.088-0.073 0.068 0.012 0.165 0.039 0.174 0.049 0.012 0.011 0.004-0.020-0.002 0.015-0.002 0.006-0.036 0.132-0.047 0.153-0.079 0.128-0.525 0.256-0.728 0.313-1.419 0.398-2.896 0.604-4.338 0.892-0.987 0.198-1.971 0.411-2.949 0.654-0.515 0.127-1.028 0.265-1.537 0.411-0.148 0.043-0.343 0.069-0.471 0.153-0.147 0.1-0.277 0.298-0.388 0.436-1.081 1.324-1.833 2.912-2.62 4.417-0.877 1.68-1.865 3.269-3.179 4.645-1.542 1.61-3.372 2.931-5.393 3.865-1.978 0.913-4.082 1.507-6.123 2.245 0.080 0.030 0.163 0.060 0.243 0.090-0.26-0.45-0.495-0.978-0.432-1.513 0.028-0.236-0.34-0.268-0.368-0.032-0.066 0.593 0.173 1.193 0.464 1.698 0.054 0.092 0.141 0.128 0.243 0.090 1.896-0.685 3.84-1.244 5.69-2.050 1.876-0.818 3.586-1.931 5.095-3.317 1.473-1.349 2.676-2.943 3.629-4.699 0.852-1.57 1.602-3.212 2.632-4.677 0.218-0.307 0.486-0.785 0.842-0.933 0.5-0.206 1.079-0.303 1.603-0.437 1.018-0.256 2.047-0.48 3.077-0.685 1.496-0.3 3.044-0.495 4.506-0.94 0.266-0.081 0.68-0.183 0.822-0.455 0.087-0.166 0.148-0.415 0.004-0.579-0.169-0.195-0.497-0.194-0.731-0.189-0.45 0.010-0.896 0.087-1.335 0.17-2.565 0.481-5.050 1.322-7.611 1.82-0.23 0.044-0.461 0.084-0.694 0.118 0.073 0.049 0.142 0.1 0.215 0.149-0.092-0.794 0.093-1.614 0.305-2.374 0.242-0.865 0.56-1.706 0.902-2.535 0.755-1.826 1.612-3.637 2.797-5.225 0.568-0.761 1.619-1.496 1.666-2.52 0.008-0.148-0.128-0.23-0.258-0.184-0.887 0.308-1.545 1.177-2.074 1.911-0.727 1.004-1.381 2.073-1.976 3.161-1.354 2.484-2.377 5.125-3.488 7.724-1.137 2.662-2.4 5.246-4.119 7.581-1.355 1.843-3.094 3.374-5.075 4.516-2.224 1.282-4.681 2.080-7.172 2.651-0.229 0.051-0.169 0.413 0.064 0.361z"></path>
            <path d="M3.703 24.268c-0.070-1.448 0.683-2.827 1.635-3.868 0.982-1.074 2.315-1.958 3.765-2.202 0.771-0.131 1.524-0.028 2.243 0.277 0.922 0.392 1.741 0.904 2.782 0.773 0.929-0.116 1.803-0.476 2.716-0.668 0.698-0.145 1.426-0.146 2.12 0.016 1.27 0.301 2.388 1.175 2.75 2.467 0.43 1.534-0.117 3.28-1.526 4.091-0.647 0.372-1.378 0.567-2.108 0.697-0.753 0.134-1.537 0.14-2.256 0.428-1.338 0.535-1.9 1.865-2.949 2.747-1.473 1.238-3.776 1.173-5.479 0.523-0.903-0.344-1.79-0.906-2.323-1.731-0.529-0.817-0.702-1.808-1.17-2.656-0.115-0.207-0.451-0.054-0.333 0.154 0.434 0.785 0.617 1.682 1.056 2.463 0.443 0.788 1.135 1.369 1.925 1.788 1.567 0.83 3.516 1.045 5.207 0.489 0.765-0.25 1.388-0.712 1.92-1.309 0.49-0.55 0.895-1.185 1.473-1.652 0.721-0.581 1.551-0.677 2.434-0.797 0.788-0.109 1.582-0.268 2.313-0.59 1.526-0.67 2.355-2.075 2.317-3.735-0.033-1.418-0.802-2.656-2.048-3.319-1.416-0.755-2.918-0.599-4.405-0.173-0.52 0.148-1.042 0.304-1.577 0.383-0.628 0.092-1.184-0.042-1.758-0.298-0.86-0.382-1.668-0.804-2.634-0.8-1.497 0.006-2.932 0.751-4.044 1.717-1.126 0.979-2.062 2.3-2.343 3.788-0.067 0.35-0.084 0.7-0.067 1.053 0.013 0.244 0.377 0.177 0.364-0.058z"></path>
            <path d="M5.676 24.003c0.466-1.801 2.118-3.071 3.461-4.228 0.18-0.154-0.053-0.442-0.233-0.285-1.388 1.194-3.089 2.522-3.572 4.386-0.059 0.227 0.285 0.358 0.345 0.128z"></path>
            <path d="M6.166 24.723c1.498 1.176 3.529 2.392 5.487 1.684 0.225-0.081 0.069-0.416-0.153-0.334-1.817 0.657-3.742-0.57-5.12-1.649-0.187-0.148-0.401 0.151-0.214 0.299z"></path>
            <path d="M11.837 23.045c2.582-0.755 5.407-0.26 7.882-1.439 0.214-0.103 0.062-0.437-0.153-0.334-2.442 1.166-5.243 0.667-7.793 1.412-0.224 0.062-0.165 0.428 0.064 0.361z"></path>
            <path d="M12.017 23.263c1.079 0.148 2.035 0.71 3.045 1.078 1.007 0.367 2.029 0.474 3.041 0.055 0.219-0.092 0.067-0.426-0.153-0.334-2.089 0.865-3.896-0.892-5.902-1.166-0.236-0.034-0.266 0.336-0.032 0.366z"></path>
            <path d="M12.091 22.632c0.358-1.542 2.098-2.009 3.436-2.314 0.23-0.053 0.17-0.416-0.063-0.364-1.462 0.335-3.33 0.875-3.718 2.55-0.054 0.229 0.291 0.36 0.345 0.128z"></path>
            <path d="M11.18 20.049c-0.725 0.702-1.159 1.594-1.639 2.466-0.049 0.089-0.047 0.194 0.042 0.258 0.072 0.052 0.209 0.046 0.258-0.043 0.462-0.841 0.877-1.721 1.574-2.399 0.17-0.161-0.064-0.446-0.235-0.282z"></path>
            <path d="M9.549 24.221c0.848 0.762 1.955 1.172 2.995 1.595 0.218 0.090 0.346-0.256 0.128-0.346-1.012-0.413-2.081-0.809-2.908-1.551-0.177-0.157-0.39 0.145-0.215 0.302z"></path>
            <path d="M6.328 24.727c-0.159 0.666-0.074 1.404 0.107 2.058 0.182 0.66 0.503 1.397 1.123 1.756 0.205 0.117 0.419-0.182 0.215-0.302-0.548-0.317-0.83-0.973-0.986-1.56-0.153-0.57-0.254-1.238-0.114-1.827 0.053-0.226-0.292-0.357-0.346-0.125z"></path>
            <path d="M8.93 26.425c0.005 0.894 0.239 1.949 1.037 2.462 0.198 0.127 0.415-0.171 0.215-0.302-0.688-0.441-0.882-1.364-0.887-2.132-0-0.101-0.062-0.19-0.167-0.201-0.093-0.003-0.2 0.074-0.199 0.172z"></path>
            <path d="M1.753 20.175c-0.559-0.5-0.841-1.273-1.028-1.979-0.191-0.714-0.305-1.465-0.317-2.204-0.015-0.747 0.044-1.5 0.161-2.239 0.112-0.718 0.286-1.474 0.693-2.089 0.348-0.524 0.767-0.841 1.398-0.891 0.589-0.047 1.189 0.028 1.766-0.13 1.095-0.303 1.627-1.289 2.061-2.256 0.531-1.187 1.063-2.384 2.386-2.836 1.279-0.434 2.733-0.239 3.878 0.457 1.109 0.676 2.016 1.898 2.043 3.241 0.022 1.077-0.785 1.761-1.525 2.411-0.829 0.73-1.564 1.542-1.523 2.721 0.027 0.691 0.285 1.316 0.529 1.952 0.096 0.25 0.209 0.547 0.103 0.814-0.157 0.389-0.655 0.605-1.001 0.77-0.213 0.101-0.062 0.437 0.153 0.334 0.525-0.247 1.209-0.602 1.259-1.261 0.040-0.556-0.321-1.099-0.482-1.613-0.203-0.639-0.29-1.328-0.029-1.962 0.205-0.501 0.593-0.896 0.986-1.255 0.758-0.69 1.668-1.349 1.861-2.428 0.226-1.262-0.495-2.614-1.392-3.445-0.995-0.924-2.374-1.406-3.728-1.328-1.415 0.081-2.559 0.754-3.25 1.999-0.57 1.031-0.867 2.535-1.976 3.145-1.084 0.594-2.468-0.095-3.412 0.844-0.571 0.567-0.858 1.331-1.033 2.101-0.209 0.919-0.296 1.873-0.29 2.815 0.006 0.841 0.125 1.689 0.352 2.498 0.217 0.777 0.535 1.563 1.147 2.109 0.174 0.165 0.387-0.137 0.212-0.293z"></path>
            <path d="M11.040 8.244c0.081 3.18-2.31 6.386-5.588 6.621-0.235 0.017-0.172 0.381 0.063 0.364 3.426-0.246 5.979-3.626 5.891-6.956-0.005-0.232-0.372-0.267-0.366-0.029z"></path>
            <path d="M9.146 8.091c-0.428 1.374-1.11 2.681-1.977 3.826-0.143 0.19 0.155 0.404 0.3 0.215 0.888-1.168 1.59-2.51 2.026-3.915 0.065-0.225-0.281-0.353-0.349-0.126z"></path>
            <path d="M4.166 11.472c-0.244 0.531-0.286 1.136-0.248 1.711 0.036 0.556 0.16 1.135 0.432 1.623 0.115 0.207 0.448 0.053 0.333-0.154-0.25-0.452-0.361-0.976-0.4-1.488-0.041-0.526 0.007-1.079 0.228-1.564 0.1-0.218-0.246-0.344-0.345-0.128z"></path>
            <path d="M1.75 12.786c-0.122 0.897-0.126 1.823 0.003 2.719 0.123 0.856 0.375 1.766 0.978 2.412 0.162 0.173 0.447-0.061 0.285-0.235-0.575-0.617-0.796-1.487-0.908-2.304-0.116-0.847-0.105-1.716 0.008-2.563 0.033-0.234-0.335-0.266-0.366-0.029z"></path>
            <path d="M10.071 15.899c-0.777 0.733-1.791 1.196-2.823 1.432-0.967 0.219-2.032 0.272-2.964-0.102-0.219-0.087-0.347 0.259-0.128 0.347 0.992 0.399 2.13 0.354 3.158 0.121 1.093-0.247 2.169-0.735 2.994-1.51 0.169-0.161-0.063-0.449-0.236-0.286z"></path>
            <path d="M7.871 15.683c-0.622 0.416-0.971 1.062-1.303 1.711-0.046 0.090 0.025 0.205 0.107 0.235 0.102 0.038 0.193-0.020 0.235-0.108 0.305-0.593 0.627-1.174 1.191-1.554 0.083-0.054 0.086-0.189 0.028-0.261-0.067-0.082-0.174-0.080-0.258-0.023z"></path>
            <path d="M9.159 10.649c-0 0.823-0.081 1.65 0.007 2.471 0.025 0.236 0.388 0.172 0.363-0.064-0.084-0.791-0.003-1.584-0.004-2.379-0-0.101-0.062-0.19-0.167-0.201-0.092-0.006-0.199 0.071-0.199 0.172z"></path>
            <path d="M7.192 8.719c0.179 0.798 0.357 1.595 0.536 2.393 0.053 0.231 0.415 0.169 0.363-0.064-0.179-0.798-0.357-1.595-0.536-2.393-0.050-0.23-0.415-0.169-0.363 0.064z"></path>
        </symbol>
        <symbol id="icon-sead" viewBox="0 0 32 32">
            <path d="M27.269 21.252c0.84-2.613 0.764-5.834-0.169-8.41-0.643-1.773-2.116-4.083-4.347-3.588-1.954 0.436-2.768 2.784-2.737 4.561 0.038 1.997 0.612 4.111 1.647 5.827 0.51 0.846 1.198 1.676 2.114 2.11 0.961 0.458 1.974 0.366 2.922-0.078 0.516-0.241 0.049-0.988-0.462-0.753-3.398 1.583-5.058-4.014-5.296-6.353-0.152-1.505 0.066-3.465 1.56-4.285 1.7-0.936 3.152 1.21 3.652 2.539 0.957 2.55 1.093 5.635 0.258 8.243-0.173 0.534 0.686 0.73 0.858 0.187z"></path>
            <path d="M26.596 21.075c-1.077-1.774-1.575-3.826-2.13-5.806-0.152-0.548-1.001-0.292-0.844 0.251 0.577 2.049 1.112 4.175 2.226 6.013 0.289 0.484 1.047 0.026 0.748-0.457z"></path>
            <path d="M20.615 23.412c-1.356-0.973-2.74-1.906-4.182-2.757-1.645-0.974-3.482-2.041-5.399-2.334-0.676-0.103-1.428-0.104-2.008 0.308-0.638 0.454-0.813 1.257-0.794 1.998 0.027 1.165 0.364 2.39 1.080 3.314 0.82 1.060 1.994 1.775 3.238 2.219 2.665 0.946 6.382 0.783 8.039-1.846 0.304-0.478-0.481-0.886-0.78-0.414-1.291 2.054-4.247 2.178-6.351 1.622-1.161-0.307-2.294-0.869-3.129-1.739-0.752-0.783-1.103-1.808-1.201-2.876-0.031-0.348-0.042-0.716 0.062-1.053 0.063-0.211 0.192-0.4 0.314-0.488 0.385-0.286 0.964-0.255 1.49-0.157 1.709 0.309 3.322 1.234 4.804 2.094 0.873 0.51 1.727 1.051 2.566 1.607 0.326 0.219 0.651 0.438 0.977 0.666 0.138 0.1 0.275 0.191 0.413 0.291 0.122 0.086 0.214 0.153 0.26 0.186 0.459 0.324 1.066-0.313 0.603-0.642z"></path>
            <path d="M19.935 23.818c-1.898-0.323-3.699-1.018-5.53-1.568-0.543-0.162-0.741 0.696-0.197 0.858 1.831 0.549 3.631 1.244 5.53 1.568 0.556 0.097 0.758-0.767 0.197-0.858z"></path>
            <path d="M17.108 14.496c-0.36-2.28-0.823-4.792-2.315-6.638-0.912-1.127-2.268-2.264-3.731-2.537-0.626-0.115-1.281-0.034-1.766 0.41-0.557 0.511-0.702 1.303-0.739 2.022-0.091 1.876 1.098 3.572 2.455 4.75 1.485 1.288 3.425 2.307 5.418 2.448 0.564 0.037 0.532-0.844-0.027-0.876-1.453-0.098-2.895-0.815-4.067-1.644-1.269-0.901-2.454-2.159-2.817-3.717-0.23-0.979-0.126-2.736 1.261-2.546 1.211 0.161 2.347 1.131 3.137 2.008 1.513 1.691 1.969 4.177 2.311 6.344 0.087 0.555 0.968 0.532 0.881-0.023z"></path>
            <path d="M16.578 13.825c-1.201-1.128-2.271-2.374-3.473-3.502-0.411-0.386-1.018 0.252-0.603 0.642 1.201 1.128 2.271 2.374 3.473 3.502 0.416 0.39 1.018-0.252 0.603-0.642z"></path>
        </symbol>
        <symbol id="icon-sead_big" viewBox="0 0 35 32">
            <path d="M9.825 23.25c6.141 2.707 14.855 3.49 20.208-1.3 0.147-0.13 0.122-0.358 0.002-0.499-1.298-1.49-3.329-2.286-5.142-2.95-2.167-0.796-4.297-1.318-6.618-1.339-2.14-0.021-4.034 0.4-5.943 1.376-0.957 0.487-1.871 1.057-2.769 1.643-0.399 0.263-0.801 0.532-1.198 0.803-0.279 0.19-0.656 0.349-0.828 0.646-0.101 0.175-0.027 0.374 0.128 0.477 0.678 0.469 1.446 0.75 2.161 1.144 0.396 0.216 0.752-0.391 0.352-0.609-0.715-0.394-1.483-0.674-2.159-1.136 0.043 0.161 0.087 0.323 0.128 0.477 0.115-0.2 0.681-0.458 0.904-0.609 0.373-0.252 0.751-0.502 1.127-0.746 0.811-0.526 1.638-1.036 2.502-1.473 1.842-0.938 3.657-1.312 5.721-1.284 2.155 0.029 4.12 0.521 6.132 1.247 1.75 0.627 3.748 1.391 5.003 2.83 0-0.169 0.002-0.33 0.002-0.499-2.579 2.305-6.075 3.158-9.462 3.204-3.375 0.046-6.808-0.65-9.902-2.014-0.406-0.176-0.762 0.431-0.347 0.612z"></path>
            <path d="M8.733 22.067c3.619-0.594 7.294-0.765 10.957-0.703 1.577 0.027 3.146-0.022 4.723-0.041 1.648-0.017 3.351 0.018 4.914 0.609 0.422 0.159 0.601-0.523 0.179-0.682-1.507-0.565-3.155-0.639-4.744-0.634-1.693 0.004-3.376 0.071-5.069 0.042-3.729-0.061-7.453 0.128-11.135 0.731-0.453 0.076-0.267 0.755 0.174 0.679z"></path>
            <path d="M27.391 21.977c-3.778 0.801-7.619 1.689-11.508 1.308-0.449-0.045-0.445 0.659 0.003 0.704 3.944 0.387 7.852-0.515 11.683-1.33 0.445-0.094 0.263-0.771-0.179-0.681z"></path>
            <path d="M21.8 19.23c-2.217-0.247-4.393 0.043-6.582 0.377-0.448 0.066-0.261 0.746 0.182 0.677 2.138-0.325 4.25-0.593 6.407-0.355 0.448 0.057 0.44-0.649-0.006-0.699z"></path>
            <path d="M14.853 22.255c-0.947-0.105-1.882-0.32-2.84-0.34-0.191-0.006-0.351 0.168-0.349 0.357-0.002 0.194 0.163 0.348 0.357 0.349 0.957 0.020 1.893 0.235 2.84 0.34 0.191 0.019 0.351-0.181 0.349-0.357-0.005-0.205-0.17-0.325-0.357-0.349z"></path>
            <path d="M3.638 16.852c6.725-0.354 14.807-3.6 17.437-10.294 0.077-0.189-0.094-0.366-0.252-0.431-1.859-0.755-4.082-0.531-6.017-0.297-2.139 0.259-4.13 0.702-6.090 1.63-1.967 0.93-3.534 2.124-4.846 3.868-0.674 0.897-1.261 1.858-1.824 2.832-0.25 0.434-0.499 0.875-0.744 1.312-0.172 0.31-0.438 0.624-0.457 0.983-0.008 0.138 0.115 0.32 0.265 0.341 0.845 0.124 1.68 0.028 2.529 0.057 0.453 0.015 0.45-0.689-0.003-0.704-0.783-0.030-1.571 0.074-2.349-0.031 0.089 0.116 0.176 0.225 0.265 0.341 0.014-0.226 0.431-0.758 0.569-0.997 0.231-0.412 0.463-0.824 0.704-1.231 0.511-0.874 1.047-1.734 1.658-2.545 1.255-1.666 2.807-2.778 4.685-3.656 1.876-0.873 3.796-1.271 5.838-1.509 1.826-0.213 3.898-0.413 5.642 0.295-0.085-0.146-0.167-0.285-0.252-0.431-1.267 3.219-4.016 5.549-7.020 7.115-2.993 1.559-6.37 2.475-9.734 2.65-0.455 0.023-0.452 0.727-0.002 0.701z"></path>
            <path d="M2.053 16.332c3.054-2.226 6.342-4.083 9.744-5.718 1.402-0.672 2.756-1.43 4.135-2.141 1.387-0.713 2.856-1.411 4.422-1.579 0.444-0.049 0.446-0.75-0.003-0.704-3.076 0.329-5.71 2.29-8.436 3.588-3.564 1.691-7.020 3.613-10.211 5.942-0.361 0.266-0.012 0.877 0.349 0.611z"></path>
            <path d="M18.708 7.809c-2.983 2.397-5.991 4.916-9.595 6.317-0.418 0.161-0.239 0.843 0.181 0.677 3.728-1.447 6.822-4.013 9.911-6.492 0.352-0.284-0.148-0.78-0.497-0.501z"></path>
            <path d="M12.56 7.839c-2.094 0.779-3.905 2.001-5.715 3.288-0.366 0.263-0.017 0.874 0.349 0.611 1.754-1.248 3.514-2.461 5.547-3.223 0.423-0.159 0.242-0.835-0.181-0.676z"></path>
            <path d="M7.725 13.669c-0.921 0.345-1.879 0.585-2.769 1.013-0.164 0.081-0.226 0.324-0.135 0.481 0.108 0.173 0.305 0.215 0.481 0.135 0.218-0.108 0.389-0.178 0.598-0.259 0.224-0.085 0.451-0.162 0.678-0.239 0.443-0.147 0.884-0.282 1.323-0.445 0.173-0.063 0.312-0.236 0.248-0.429-0.043-0.174-0.235-0.324-0.423-0.257z"></path>
        </symbol>
        <symbol id="icon-strawberry" viewBox="0 0 33 32">
            <path d="M20.904 11.123c-2.054-1.554-4.519-2.973-7.134-3.165-2.48-0.184-4.583 1.075-5.78 3.24-1.090 1.971-1.496 4.321-1.655 6.551-0.177 2.493-0.040 5.080 0.608 7.507 0.462 1.717 1.197 3.558 2.866 4.413 1.456 0.749 3.166 0.523 4.661 0.046 1.823-0.58 3.51-1.564 5.083-2.639 1.479-1.004 2.997-2.113 4.225-3.416 1.581-1.676 2.48-3.889 1.893-6.202-0.676-2.664-2.735-4.49-4.61-6.35-0.252-0.249-0.684 0.1-0.43 0.354 1.594 1.579 3.338 3.090 4.204 5.224 0.749 1.839 0.548 3.789-0.541 5.436-0.996 1.498-2.505 2.628-3.933 3.692-1.392 1.034-2.863 1.99-4.438 2.723-1.425 0.666-3.064 1.237-4.664 1.013-1.654-0.235-2.694-1.454-3.298-2.946-0.84-2.063-1.107-4.376-1.14-6.579-0.034-2.281 0.187-4.632 0.903-6.797 0.796-2.412 2.457-4.55 5.154-4.717 2.791-0.175 5.543 1.443 7.698 3.070 0.291 0.217 0.613-0.235 0.326-0.454z"></path>
            <path d="M21.065 11.105c-0.494-0.464-0.944-1.027-1.052-1.713-0.089-0.567 0.081-1.133 0.343-1.632 0.615-1.166 1.635-2.087 2.493-3.068 0.447-0.508 0.88-1.040 1.169-1.663-0.175-0.044-0.354-0.086-0.533-0.129-0.561 2.762-0.161 6.363-2.879 8.057-0.3 0.188 0.053 0.618 0.354 0.434 2.869-1.792 2.484-5.521 3.077-8.43 0.067-0.328-0.411-0.399-0.535-0.133-0.558 1.194-1.658 2.112-2.502 3.091-0.815 0.947-1.694 2.118-1.55 3.449 0.090 0.831 0.598 1.534 1.188 2.093 0.259 0.242 0.69-0.108 0.428-0.358z"></path>
            <path d="M21.352 11.3c1.548-1.358 3.597-2.401 5.701-1.907-0.066-0.147-0.131-0.294-0.197-0.441-0.591 0.925-1.594 1.55-2.597 1.944s-2.203 0.622-3.246 0.232c-0.337-0.124-0.532 0.395-0.195 0.518 1.159 0.432 2.465 0.215 3.591-0.21 1.116-0.425 2.247-1.132 2.898-2.162 0.119-0.19 0.010-0.391-0.197-0.441-2.24-0.526-4.466 0.587-6.113 2.028-0.266 0.241 0.088 0.675 0.356 0.438z"></path>
            <path d="M20.841 11.092c-3.082-1.334-4.252-5.114-2.727-8.034-0.158 0.027-0.316 0.053-0.472 0.074 0.514 0.573 1.085 1.091 1.595 1.666 0.485 0.542 0.993 1.167 1.052 1.919 0.029 0.359 0.573 0.272 0.55-0.084-0.125-1.604-1.781-2.758-2.769-3.859-0.152-0.167-0.375-0.111-0.472 0.074-1.668 3.198-0.286 7.31 3.050 8.756 0.328 0.147 0.524-0.371 0.193-0.512z"></path>
            <path d="M12.73 9.823c-0.309 0.373-0.406 0.852-0.515 1.312-0.015 0.065 0.022 0.157 0.063 0.207s0.115 0.095 0.185 0.099c0.075 0.005 0.151-0.009 0.205-0.062 0.060-0.051 0.082-0.11 0.097-0.185-0.003 0.016-0.019 0.077 0 0 0.003-0.016 0.009-0.034 0.012-0.049 0.007-0.028 0.012-0.059 0.019-0.087 0.014-0.055 0.026-0.115 0.045-0.172 0.028-0.101 0.056-0.201 0.089-0.299 0.014-0.045 0.033-0.088 0.053-0.131 0.011-0.019 0.020-0.043 0.030-0.063 0.004-0.012 0.009-0.024 0.015-0.031 0.024-0.045-0.034 0.064-0.011 0.019 0.049-0.086 0.102-0.163 0.161-0.238 0.092-0.11 0.054-0.313-0.068-0.391-0.128-0.080-0.284-0.049-0.38 0.072z"></path>
            <path d="M17.414 12.526c-0.062 0.263-0.169 0.511-0.29 0.752-0.009 0.014-0.013 0.025-0.021 0.039 0.019-0.033 0.011-0.019-0.002 0.006-0.015 0.031-0.032 0.058-0.047 0.090-0.032 0.058-0.068 0.119-0.102 0.173-0.072 0.12-0.149 0.243-0.225 0.365s-0.068 0.304 0.068 0.391c0.118 0.079 0.303 0.070 0.388-0.066 0.302-0.487 0.618-0.986 0.753-1.551 0.019-0.077 0.025-0.139-0.007-0.212-0.027-0.061-0.090-0.126-0.153-0.147-0.13-0.040-0.324 0.013-0.36 0.161z"></path>
            <path d="M22.476 16.814c-0.004 0.056-0.008 0.111-0.013 0.167-0.003 0.026-0.006 0.052-0.013 0.079-0.003 0.016-0.007 0.028-0.010 0.044-0 0.010-0.014 0.055-0.002 0.006s-0.002-0.004-0.002 0.006c-0.003 0.016-0.007 0.028-0.010 0.044-0.007 0.028-0.018 0.057-0.025 0.085-0.016 0.051-0.038 0.1-0.060 0.149-0.013 0.025-0.022 0.049-0.035 0.074-0.021 0.039 0 0 0.007-0.018-0.008 0.014-0.013 0.025-0.021 0.039-0.028 0.047-0.059 0.095-0.091 0.144s-0.069 0.095-0.103 0.139c-0.023 0.025-0.042 0.048-0.065 0.073-0.017 0.017-0.053 0.043 0.004-0.002-0.014 0.011-0.023 0.025-0.037 0.036-0.054 0.053-0.092 0.11-0.097 0.185-0.009 0.067 0.016 0.155 0.063 0.207 0.093 0.1 0.28 0.149 0.392 0.040 0.203-0.208 0.373-0.436 0.497-0.702 0.107-0.229 0.164-0.48 0.174-0.729 0.008-0.145-0.089-0.298-0.246-0.311-0.145-0.009-0.3 0.090-0.308 0.245z"></path>
            <path d="M13.587 14.271c-0.196 0.43-0.395 0.876-0.416 1.361-0.008 0.145 0.089 0.298 0.246 0.311 0.141 0.011 0.3-0.090 0.308-0.245 0.003-0.114 0.021-0.225 0.043-0.338 0-0.010 0.005-0.022 0.009-0.034-0.011 0.073-0.007 0.028-0.004 0.012 0.007-0.028 0.014-0.055 0.021-0.083 0.014-0.055 0.034-0.108 0.050-0.159 0.074-0.214 0.168-0.418 0.261-0.621 0.063-0.131-0.025-0.317-0.161-0.359-0.151-0.055-0.291 0.012-0.358 0.155z"></path>
            <path d="M17.766 17.245c-0.098 0.411-0.288 0.8-0.466 1.183-0.061 0.135 0.025 0.317 0.16 0.359 0.149 0.051 0.293-0.018 0.356-0.159 0.174-0.381 0.365-0.77 0.466-1.183 0.019-0.077 0.025-0.139-0.007-0.212-0.027-0.061-0.090-0.126-0.153-0.147-0.069-0.023-0.148-0.027-0.211 0.006-0.061 0.027-0.128 0.082-0.145 0.153z"></path>
            <path d="M9.83 16.118c-0.174 0.729-0.431 1.436-0.605 2.165-0.034 0.142 0.007 0.31 0.161 0.359 0.127 0.046 0.322-0.007 0.356-0.159 0.174-0.729 0.431-1.436 0.605-2.165 0.034-0.142-0.008-0.31-0.161-0.359-0.126-0.042-0.32 0.011-0.356 0.159z"></path>
            <path d="M13.992 19.162c-0.087 0.381-0.095 0.777-0.181 1.158-0.015 0.065 0.022 0.157 0.063 0.207s0.115 0.095 0.185 0.098c0.075 0.006 0.151-0.009 0.205-0.062 0.060-0.051 0.082-0.11 0.097-0.185 0.087-0.381 0.095-0.777 0.181-1.158 0.015-0.065-0.022-0.157-0.063-0.207s-0.115-0.095-0.185-0.099c-0.075-0.006-0.151 0.009-0.205 0.062-0.058 0.055-0.082 0.11-0.097 0.185z"></path>
            <path d="M19.711 21.541c-0.299 0.481-0.558 0.989-0.898 1.444-0.088 0.118-0.056 0.309 0.068 0.391 0.13 0.084 0.296 0.064 0.388-0.066 0.338-0.46 0.599-0.963 0.898-1.444 0.076-0.122 0.068-0.304-0.068-0.391-0.12-0.073-0.305-0.064-0.388 0.066z"></path>
            <path d="M11.253 21.376c-0.117 0.498-0.321 0.966-0.442 1.465-0.019 0.077-0.025 0.139 0.007 0.212 0.027 0.061 0.090 0.126 0.153 0.147 0.127 0.046 0.322-0.007 0.356-0.159 0.117-0.498 0.321-0.966 0.442-1.465 0.019-0.077 0.025-0.139-0.007-0.212-0.027-0.061-0.090-0.126-0.153-0.147-0.126-0.042-0.32 0.011-0.356 0.159z"></path>
            <path d="M15.894 23.168c-0.217 0.469-0.425 0.939-0.617 1.422-0.051 0.135 0.019 0.314 0.161 0.359 0.143 0.049 0.299-0.016 0.356-0.159 0.188-0.481 0.4-0.952 0.617-1.421 0.061-0.135-0.025-0.317-0.16-0.359-0.149-0.051-0.293 0.018-0.356 0.159z"></path>
            <path d="M11.536 25.983c-0.192 0.419-0.381 0.831-0.574 1.246-0.061 0.135 0.025 0.317 0.161 0.359 0.149 0.051 0.293-0.018 0.356-0.159 0.193-0.414 0.381-0.831 0.574-1.246 0.061-0.135-0.025-0.317-0.161-0.359-0.145-0.053-0.289 0.016-0.356 0.159z"></path>
            <path d="M8.878 24.381c-0.003 0.114-0.021 0.225-0.043 0.338-0 0.010-0.005 0.022-0.009 0.034 0.011-0.073 0.007-0.028 0.004-0.012-0.007 0.028-0.014 0.055-0.021 0.083-0.014 0.055-0.034 0.108-0.050 0.159-0.074 0.214-0.168 0.418-0.261 0.621-0.061 0.135 0.025 0.317 0.161 0.359 0.149 0.051 0.293-0.018 0.356-0.159 0.196-0.43 0.395-0.876 0.416-1.361 0.008-0.146-0.089-0.298-0.246-0.311-0.143-0.005-0.302 0.096-0.306 0.249z"></path>
            <path d="M15.603 26.339c-0.036 0.148-0.087 0.294-0.162 0.43 0.011-0.020 0.020-0.043 0.034-0.064-0.090 0.168-0.206 0.322-0.331 0.466-0.042 0.048-0.059 0.139-0.050 0.204 0.011 0.068 0.056 0.146 0.112 0.185 0.060 0.037 0.131 0.064 0.203 0.052 0.076-0.014 0.131-0.054 0.183-0.111 0.238-0.282 0.437-0.597 0.523-0.958 0.019-0.077 0.025-0.139-0.007-0.212-0.027-0.061-0.090-0.126-0.153-0.147-0.069-0.023-0.148-0.027-0.211 0.006-0.057 0.025-0.124 0.080-0.141 0.151z"></path>
            <path d="M23.462 20.040c-0.217 0.469-0.489 0.914-0.617 1.421-0.019 0.077-0.025 0.139 0.008 0.212 0.027 0.061 0.090 0.126 0.153 0.147 0.127 0.046 0.322-0.007 0.356-0.159 0.122-0.51 0.4-0.952 0.617-1.421 0.063-0.131-0.025-0.317-0.161-0.359-0.151-0.055-0.289 0.016-0.356 0.159z"></path>
            <path d="M9.367 12.325c-0.204 0.326-0.365 0.692-0.458 1.071-0.019 0.077-0.025 0.139 0.007 0.212 0.027 0.061 0.090 0.126 0.153 0.147 0.069 0.023 0.148 0.027 0.211-0.006 0.059-0.031 0.127-0.086 0.145-0.153 0.071-0.296 0.188-0.579 0.332-0.843-0.011 0.019-0.020 0.043-0.034 0.064 0.028-0.057 0.058-0.109 0.092-0.164 0.040-0.062 0.059-0.129 0.050-0.203-0.011-0.068-0.056-0.146-0.112-0.185-0.118-0.079-0.303-0.070-0.386 0.060z"></path>
            <path d="M20.951 10.882c0.304-0.851 0.593-1.714 0.974-2.535 0.061-0.135-0.027-0.311-0.161-0.359-0.147-0.057-0.295 0.024-0.356 0.159-0.379 0.825-0.665 1.683-0.972 2.539-0.049 0.14 0.020 0.305 0.161 0.359 0.139 0.050 0.307-0.020 0.354-0.163z"></path>
        </symbol>
    </defs>
</svg>
